<svg width="187" height="69" viewBox="0 0 187 69" fill="none" xmlns="http://www.w3.org/2000/svg">
<g id="66d1918817f3e5959b635dcd_CCC%20Logo%20White.svg" clip-path="url(#clip0_13710_14630)">
<path id="Vector" d="M69.6189 34.4685C69.6189 41.4083 67.4288 47.9416 63.6922 53.3183C63.6922 53.3183 63.6922 53.3497 63.66 53.381C59.8913 58.7577 54.6088 63.0404 48.36 65.635C44.2048 67.3543 39.5986 68.2921 34.7993 68.2921C27.6162 68.2921 20.8842 66.1663 15.344 62.5089C9.80377 58.8515 5.3909 53.7248 2.74962 47.6603C0.978039 43.6276 0.0117188 39.1575 0.0117188 34.4997C0.0117188 27.5287 2.20204 20.9954 5.9707 15.6186C9.73934 10.2418 15.0219 5.95918 21.2708 3.39585C25.426 1.67654 30.032 0.738729 34.8316 0.738729C42.7554 0.738729 50.0994 3.33332 55.9295 7.64724L48.7464 16.7752C44.8812 13.8993 40.0818 12.2112 34.8316 12.2112C30.0643 12.2112 25.6515 13.6179 21.9795 16.025C18.3074 18.432 15.3762 21.8393 13.6368 25.8407C12.4773 28.4978 11.833 31.4361 11.833 34.531C11.833 39.1575 13.2825 43.4401 15.7627 47.0038C18.243 50.5674 21.754 53.4122 25.877 55.1003C28.6149 56.2256 31.6425 56.8509 34.8316 56.8509C39.5986 56.8509 44.0116 55.4441 47.6836 53.037C51.3556 50.6299 54.2867 47.2225 56.0261 43.2213C57.1857 40.5642 57.8299 37.6259 57.8299 34.531C57.8299 27.56 60.0202 21.0267 63.7888 15.6498C67.5574 10.2731 72.84 5.99045 79.1212 3.4271C83.2762 1.7078 87.8824 0.76999 92.6818 0.76999C100.606 0.76999 107.95 3.33332 113.78 7.67849L106.597 16.8065C102.732 13.9305 97.9323 12.2425 92.6818 12.2425C87.9147 12.2425 83.5017 13.6492 79.8297 16.0562C76.1577 18.4633 73.2266 21.8707 71.4872 25.8719C70.3276 28.529 69.6834 31.4674 69.6834 34.5623L69.6189 34.4685ZM185.577 34.4685H173.756C173.756 37.5631 173.112 40.4705 171.952 43.1588C170.213 47.16 167.282 50.5674 163.61 52.9745C159.938 55.3816 155.525 56.7882 150.758 56.7882C150.661 56.7882 150.597 56.7882 150.5 56.7882C150.242 56.7882 149.952 56.7882 149.695 56.7882C149.501 56.7882 149.34 56.7882 149.147 56.7569C148.986 56.7569 148.825 56.7569 148.664 56.7257C148.471 56.7257 148.245 56.6944 148.052 56.6632C147.923 56.6632 147.794 56.6632 147.665 56.6007C147.44 56.6007 147.214 56.5381 146.989 56.5069C146.892 56.5069 146.828 56.5069 146.764 56.4756C145.572 56.2881 144.444 55.9756 143.349 55.6316C143.349 55.6316 143.349 55.6316 143.317 55.6316C142.705 55.4128 142.093 55.1941 141.513 54.9438C141.256 54.8188 140.966 54.6938 140.708 54.5688C140.483 54.4438 140.225 54.35 139.999 54.225C139.903 54.1936 139.838 54.1311 139.742 54.0998C139.291 53.8498 138.872 53.5998 138.453 53.3497C138.389 53.3183 138.357 53.287 138.292 53.2558C137.841 52.9745 137.423 52.662 136.971 52.3492C134.942 50.8801 133.171 49.0671 131.753 47.035C131.753 47.035 131.721 46.9725 131.689 46.9413C131.689 46.9413 130.658 45.347 129.982 43.9716C128.887 48.0353 127.115 51.8492 124.764 55.2253L124.699 55.3191V55.3816C124.474 55.6629 124.248 55.9129 124.055 56.1944L125.762 58.0387C127.437 59.7268 129.305 61.2586 131.335 62.5714C134.588 64.7284 138.26 66.3225 142.19 67.2916C142.608 67.4168 143.059 67.5106 143.51 67.6043C143.542 67.6043 143.607 67.6043 143.639 67.6043C144.058 67.6981 144.444 67.7606 144.863 67.8231C144.928 67.8231 144.992 67.8231 145.056 67.8543C145.443 67.9169 145.829 67.9794 146.248 68.0106C146.345 68.0106 146.409 68.0106 146.474 68.0419C146.86 68.0731 147.247 68.1356 147.633 68.1669C147.73 68.1669 147.794 68.1669 147.891 68.1669C148.31 68.1981 148.696 68.2296 149.115 68.2608C149.179 68.2608 149.244 68.2608 149.308 68.2608C149.791 68.2608 150.275 68.2608 150.726 68.2608C155.525 68.2608 160.131 67.323 164.286 65.6037C170.535 63.0404 175.85 58.7577 179.586 53.3497C183.355 47.9728 185.545 41.4395 185.545 34.4685H185.577ZM127.566 34.4685C127.566 31.3736 128.21 28.4665 129.37 25.7781C131.109 21.7768 134.04 18.3695 137.712 15.9625C141.384 13.5554 145.765 12.1487 150.564 12.1487C155.815 12.1487 160.614 13.8367 164.479 16.7127L171.662 7.58472C165.832 3.2708 158.488 0.676208 150.564 0.676208C145.765 0.676208 141.191 1.61401 137.004 3.33332C130.755 5.89667 125.44 10.1793 121.704 15.5561C117.967 20.9327 115.777 27.4037 115.745 34.3435V34.4685C115.745 37.5631 115.1 40.4705 113.941 43.1276C112.201 47.1288 109.27 50.5362 105.598 52.9432C101.926 55.3503 97.5456 56.7569 92.7463 56.7569C92.6497 56.7569 92.5852 56.7569 92.4885 56.7569C92.2308 56.7569 91.941 56.7569 91.6833 56.7569C91.4901 56.7569 91.3289 56.7569 91.1357 56.7257C90.9746 56.7257 90.8137 56.7257 90.6525 56.6944C90.4593 56.6944 90.2339 56.6632 90.0405 56.6319C89.9118 56.6319 89.7829 56.6319 89.6541 56.6007C89.4286 56.5694 89.2031 56.5381 88.9777 56.5069C88.9131 56.5069 88.8165 56.5069 88.7522 56.4756C87.5603 56.2881 86.433 55.9756 85.3377 55.6316C85.3377 55.6316 85.3377 55.6316 85.3057 55.6316C84.6936 55.4441 84.0815 55.1941 83.5017 54.9438C83.2119 54.8188 82.9542 54.6938 82.6964 54.5688C82.4389 54.4438 82.2134 54.3188 81.988 54.225C81.8912 54.1936 81.8268 54.1311 81.7302 54.0998C81.2793 53.8498 80.8604 53.5998 80.4095 53.3497C80.3452 53.3183 80.3129 53.287 80.2486 53.2558C79.7976 52.9745 79.3788 52.6932 78.9278 52.3492C76.8986 50.8801 75.1269 49.0671 73.7098 47.035C73.7098 47.035 73.6775 46.9725 73.6453 46.9413C73.6453 46.9413 72.6145 45.3782 71.9381 43.9716C70.8431 48.0353 69.0714 51.8492 66.7201 55.2253L66.6556 55.3191C66.4624 55.6316 66.2369 55.9129 66.0437 56.1944L67.7508 58.0074C69.4257 59.6955 71.294 61.2273 73.3232 62.5401C76.5765 64.6657 80.2486 66.2913 84.1783 67.2603C84.6292 67.3856 85.0479 67.4793 85.4989 67.5731C85.5311 67.5731 85.5955 67.5731 85.6277 67.5731C86.0464 67.6668 86.433 67.7293 86.8517 67.7918C86.9162 67.7918 86.9805 67.7918 87.0451 67.7918C87.4315 67.8543 87.8503 67.9169 88.2367 67.9481C88.3333 67.9481 88.3979 67.9481 88.4945 67.9481C88.8811 68.0106 89.2675 68.0419 89.6541 68.0731C89.7184 68.0731 89.815 68.0731 89.9118 68.0731C90.3305 68.0731 90.7171 68.1356 91.1357 68.1356C91.2001 68.1356 91.2646 68.1356 91.3289 68.1356C91.8121 68.1356 92.2631 68.1356 92.7463 68.1356C97.5456 68.1356 102.12 67.1978 106.307 65.4785C112.556 62.9152 117.871 58.6327 121.607 53.2245C125.344 47.8478 127.534 41.377 127.566 34.4372V34.3435V34.4685ZM185.803 64.3532C185.803 66.5103 183.999 68.3233 181.712 68.3233C179.425 68.3233 177.621 66.5415 177.621 64.3532C177.621 62.1651 179.425 60.3833 181.712 60.3833C183.999 60.3833 185.803 62.1651 185.803 64.322V64.3532ZM185.32 64.3532C185.32 62.4151 183.774 60.8521 181.712 60.8521C179.651 60.8521 178.072 62.4464 178.072 64.3845C178.072 66.3225 179.618 67.8856 181.68 67.8856C183.741 67.8856 185.32 66.2913 185.32 64.3532ZM182.743 64.8535L183.806 66.3538H182.678L181.744 65.0097H180.971V66.3538H180.005V62.1338H181.938C182.968 62.1338 183.645 62.6651 183.645 63.5404C183.645 64.2282 183.258 64.6657 182.711 64.8535H182.743ZM182.711 63.6029C182.711 63.1966 182.421 62.9779 181.938 62.9779H181.004V64.2282H181.97C182.453 64.2282 182.711 63.9782 182.711 63.6029Z" fill="white"/>
</g>
<defs>
<clipPath id="clip0_13710_14630">
<rect width="186.706" height="69" fill="white" transform="translate(0.0117188)"/>
</clipPath>
</defs>
</svg>
